# xmcd
#
# Track frame offsets: 
#        182
#        16877
#        32610
#        46685
#        66012
#        81295
#        94582
#        112845
#        130137
#        147045
#        162095
#        175962
#
# Disc length: 2534 seconds
#
# Revision: 1
# Processed by: cddbd v1.5.2PL0 Copyright (c) Steve Scherf et al.
# Submitted via: ExactAudioCopyFreeDBPlugin 1.0
#
DISCID=8909e40c
DTITLE=Don and Glenn - Interpretent Revilio
DYEAR=1900
DGENRE=
TTITLE0=Sans vous
TTITLE1=Letranger
TTITLE2=Nostalgie
TTITLE3=Le cercle de vie
TTITLE4=Les amours lointaines
TTITLE5=Un jour en plein ete
TTITLE6=Le bel age
TTITLE7=La rose tremiere
TTITLE8=La maison abandonnee
TTITLE9=Sombres amours
TTITLE10=Avec tes yeux
TTITLE11=Un jour tu viendras
EXTD=
EXTT0=
EXTT1=
EXTT2=
EXTT3=
EXTT4=
EXTT5=
EXTT6=
EXTT7=
EXTT8=
EXTT9=
EXTT10=
EXTT11=
PLAYORDER=
